# xmcd
#
# Track frame offsets: 
#        150
#        11450
#        20264
#        31742
#        47393
#        58718
#        68589
#        85107
#        100020
#        116708
#        128759
#        139691
#        146018
#        163882
#        175815
#        198858
#
# Disc length: 2808 seconds
#
# Revision: 0
# Processed by: cddbd v1.5.2PL0 Copyright (c) Steve Scherf et al.
# Submitted via: ExactAudioCopy v0.95b4
#
DISCID=c80af610
DTITLE=Three Day Threshold - Against the Grain
DYEAR=2007
DGENRE=Bluegrass
TTITLE0=Narrow it Down
TTITLE1=Uni
TTITLE2=Chicken Shack (Baby's Got My #)
TTITLE3=Right Outside the Door
TTITLE4=Whiskey, You're the Devil
TTITLE5=Kelly, I'm Coming Over
TTITLE6=Ghost of Jimmy Ryan
TTITLE7=I Must Admit
TTITLE8=Thrown Out
TTITLE9=It's Alright
TTITLE10=Gone (Part 1)
TTITLE11=A Toast to My Father
TTITLE12=Count of Monte Cristo
TTITLE13=Road to Riches, Road to Ruins
TTITLE14=Softly
TTITLE15=Back Home in Derry
EXTD=
EXTT0=
EXTT1=
EXTT2=
EXTT3=
EXTT4=
EXTT5=
EXTT6=
EXTT7=
EXTT8=
EXTT9=
EXTT10=
EXTT11=
EXTT12=
EXTT13=
EXTT14=
EXTT15=
PLAYORDER=
